<?xml version="1.0" standalone="no"?>
<!DOCTYPE svg PUBLIC "-//W3C//DTD SVG 20010904//EN"
 "http://www.w3.org/TR/2001/REC-SVG-20010904/DTD/svg10.dtd">
<svg version="1.0" xmlns="http://www.w3.org/2000/svg"
 width="750.000000pt" height="750.000000pt" viewBox="0 0 750.000000 750.000000"
 preserveAspectRatio="xMidYMid meet">

<g transform="translate(0.000000,750.000000) scale(0.100000,-0.100000)"
fill="#000000" stroke="none">
<path d="M2895 5624 c-288 -29 -424 -51 -640 -104 -552 -136 -1133 -404 -1765
-815 -138 -90 -458 -310 -478 -329 -10 -9 31 -55 195 -217 270 -267 413 -384
671 -554 526 -344 1104 -563 1770 -670 243 -39 292 -30 100 19 -280 72 -793
298 -1143 503 -368 217 -649 430 -929 704 l-139 135 130 77 c805 474 1501 732
2152 797 150 15 456 12 604 -5 316 -37 603 -123 887 -265 450 -225 843 -565
1252 -1081 l109 -138 97 41 c498 206 1088 550 1434 835 43 34 80 63 84 63 12
0 -4 -350 -20 -453 -38 -242 -119 -523 -190 -665 -54 -107 -38 -112 21 -7 165
294 258 547 313 855 29 163 44 385 36 511 l-8 107 -197 -132 c-374 -252 -773
-457 -1271 -656 -80 -31 -155 -60 -167 -64 -18 -6 -31 5 -84 76 -196 260 -504
584 -714 752 -326 260 -717 467 -1077 571 -126 36 -295 71 -438 90 -118 16
-506 28 -595 19z"/>
<path d="M2925 4883 c31 -72 89 -259 106 -340 26 -129 36 -387 19 -519 -35
-284 -137 -537 -302 -755 -64 -84 -66 -89 -36 -73 57 28 165 115 211 169 302
349 367 915 151 1323 -53 101 -180 267 -149 195z"/>
<path d="M1913 4534 c-200 -99 -137 -428 82 -428 138 0 235 145 195 292 -13
50 -66 113 -114 136 -43 20 -122 20 -163 0z"/>
<path d="M5305 3365 c-11 -2 -69 -9 -130 -15 -489 -52 -1021 -228 -1430 -474
-134 -81 -478 -254 -635 -321 -710 -299 -1300 -382 -1915 -269 -388 72 -941
288 -1106 433 -35 31 -54 38 -63 22 -8 -12 146 -158 255 -242 408 -319 867
-518 1376 -596 150 -23 512 -23 683 0 546 75 1109 280 1629 595 425 257 991
443 1576 519 196 25 684 25 870 -1 349 -47 760 -155 1001 -261 31 -14 59 -24
60 -22 2 2 -38 33 -89 69 -408 291 -828 460 -1342 540 -104 16 -189 21 -425
23 -162 2 -304 2 -315 0z"/>
<path d="M5815 2478 c-442 -27 -903 -182 -1272 -427 -115 -77 -208 -150 -200
-157 2 -2 71 17 153 42 327 100 708 184 1014 224 209 28 608 38 813 21 354
-30 779 -134 1070 -262 49 -22 94 -38 100 -36 11 3 -106 109 -198 179 -211
159 -479 285 -760 358 -193 49 -484 73 -720 58z"/>
</g>
</svg>
